<svg width="42" height="39" viewBox="0 0 42 39" fill="none" xmlns="http://www.w3.org/2000/svg">
<path d="M42 22.5C42 29.475 32.97 38.25 25.41 38.25C17.85 38.25 0 30.825 0 22.5C0 14.175 9.40202 0 21 0C32.598 0 42 15.525 42 22.5Z" fill="#FFFCE1"/>
<path d="M39.9 15.075C39.9 15.075 36.54 11.025 33.81 11.025C31.08 11.025 28.2202 25.5 28.2202 25.5C28.2202 25.5 21 11.025 13.86 11.025C7.14 11.475 1.68 15.4026 1.68 15.4026C1.68 15.4026 2.03867 13.0892 6.09 8.1C7.91704 5.85 9.75064 4.43013 11.34 3.29304C12.1987 2.67874 13.8678 1.55633 16.2789 0.778165C18.69 0 19.5472 0 21 0C26.0463 0 30.1809 2.78937 33.18 5.625C37.7942 9.98766 39.9 15.075 39.9 15.075Z" fill="black"/>
<path d="M31.1167 30.093C30.0965 30.5396 22.6812 29.3937 22.5428 27.5525C22.4388 26.1691 25.9721 24.9397 28.076 24.4099C28.1168 24.3983 28.1652 24.3862 28.2202 24.3741C28.6439 24.2812 29.4592 24.1932 30.2271 24.4014C31.0946 24.6367 32.4092 26.2936 32.9581 27.0927C33.3939 27.8219 32.7255 29.632 31.1167 30.093Z" fill="#FC8518"/>
<path d="M16.4814 19.35C16.4814 20.25 16.1614 22.05 14.8814 22.05C13.6014 22.05 13.1214 20.25 13.1214 19.35C13.1214 17.8588 13.9214 16.65 14.8814 16.65C15.8414 16.65 16.4814 17.8588 16.4814 19.35Z" fill="black"/>
<path d="M37.4814 19.35C37.4814 20.25 37.1614 22.05 35.8814 22.05C34.6014 22.05 34.1214 20.25 34.1214 19.35C34.1214 17.8588 34.9214 16.65 35.8814 16.65C36.8414 16.65 37.4814 17.8588 37.4814 19.35Z" fill="black"/>
</svg>
